<?xml version="1.0" encoding="utf-8"?>
<!-- Generator: Adobe Illustrator 23.0.2, SVG Export Plug-In . SVG Version: 6.00 Build 0)  -->
<svg version="1.1" id="Layer_1" xmlns="http://www.w3.org/2000/svg" xmlns:xlink="http://www.w3.org/1999/xlink" x="0px" y="0px"
	 viewBox="0 0 958.6 978.3" style="enable-background:new 0 0 958.6 978.3;" xml:space="preserve">
<style type="text/css">
	.st0{fill:#614F3D;}
	.st1{fill:#969696;}
	.st2{fill:#C1C1C1;}
	.st3{opacity:0.3;fill:#6E6E6E;enable-background:new    ;}
	.st4{fill:#C89E71;}
	.st5{fill:#6E6E6E;}
	.st6{fill:#BC9264;}
	.st7{opacity:0.2;fill:#8E8E8E;enable-background:new    ;}
	.st8{fill:none;}
	.st9{fill:#443326;}
	.st10{font-family:'Montserrat-Bold';}
	.st11{font-size:66.0027px;}
	.st12{font-size:67.293px;}
	.st13{font-size:65px;}
</style>
<title>empty_1</title>
<g>
	<g>
		<g id="paper">
			<path class="st0" d="M831.8,832.5c0,80.5-20,145.8-44.6,145.8s-44.6-65.3-44.6-145.8s19.9-145.7,44.6-145.7
				S831.8,751.9,831.8,832.5z"/>
			<path class="st1" d="M718.5,178.4c0,12.3-1.3,24.5-3.8,36.5C697.3,297.7,624.3,357,539.8,357c-42.9,0.1-84.3-15.4-116.6-43.6
				c-1.9-1.7-3.8-3.4-5.6-5.2c-15.6-14.8-28.4-32.3-37.7-51.7c-6.8-13.1-11.7-27.1-14.6-41.6c-2.6-12-3.8-24.3-3.8-36.5
				c0-12.2,1.2-24.3,3.5-36.3c3.1-14.5,8-28.5,14.6-41.7C422.7,11.7,529.7-25.2,618.4,18C668,42.2,703.7,88,715,142.1
				C717.3,154.1,718.5,166.2,718.5,178.4z"/>
			<path class="st2" d="M933.2,196.4c-24.7-34.6-64.6-55.1-107.1-55H132.5C59.6,141.4,0,200.7,0,273.6v378.1c-0.1,7.7,0.6,15.4,2,23
				c5.2,29.2,20.2,55.9,42.5,75.5l0,0c24.1,21.8,55.4,33.9,87.9,33.9H826c8.2,0,16.4-0.8,24.5-2.3l0,0c11.5-2,22.6-5.8,33-11.2
				c0,0,0,0,0.1,0c32.9-15.6,57.8-44.2,68.7-79c0.1-0.2,0.1-0.4,0.2-0.6c4.1-12.7,6.1-25.9,6-39.2V273.6
				C958.7,245.8,949.8,218.7,933.2,196.4z M890.7,651.8c-0.2,26.2-16,49.7-40.1,59.9l0,0c-7.8,3.1-16.1,4.7-24.5,4.7H132.5
				c-34.1,0-62.3-26.3-64.8-60.3c-0.1-1.4-0.2-2.9-0.2-4.3V273.6c0-35.7,29.3-64.6,64.9-64.6H826c14.1-0.1,27.8,4.5,39,13
				c16.2,12.2,25.7,31.3,25.7,51.6L890.7,651.8z"/>
			<path class="st3" d="M209.3,716.4v67.8h588.5c0,0-23.7-7.5-19.6-41.6c1.4-11.5,6.9-26.2,6.9-26.2L209.3,716.4z"/>
			<path class="st4" d="M216.7,832.5c0,80.5-20,145.8-44.6,145.8s-44.6-65.3-44.6-145.8s19.9-145.7,44.6-145.7
				S216.7,751.9,216.7,832.5z"/>
			<path class="st5" d="M656.5,178.4c-0.3,49.5-40.3,89.7-89.8,90.1H411.3c-49.5-0.4-89.5-40.6-89.8-90.1
				c-0.1-14.6,3.6-29,10.6-41.8c4.1-8,9.4-15.3,15.8-21.6c16.8-16.8,39.6-26.3,63.4-26.4h155.4c33.3-0.1,63.9,18.4,79.2,48
				C653,149.3,656.6,163.7,656.5,178.4z"/>
			<path class="st2" d="M618.4,168.1c-0.3,43.9-35.7,79.4-79.6,79.9H401.1c-43.9-0.4-79.3-36-79.6-79.9c-0.1-13,3.2-25.7,9.4-37.1
				c3.6-7.1,8.3-13.6,14-19.2C359.8,97,380,88.6,401.1,88.5h137.7c29.5-0.1,56.6,16.3,70.2,42.6
				C615.3,142.4,618.5,155.2,618.4,168.1z"/>
			<rect x="172.1" y="686.8" class="st4" width="543.9" height="291.6"/>
			<path class="st6" d="M787.2,978.3H284.5c0.3,0,0.6,0,0.9,0c0.1-0.1,0.2-0.1,0.4-0.1c0.4-0.1,0.8-0.1,1.3-0.3
				c0.2-0.1,0.4-0.1,0.6-0.2c0.1,0,0.2,0,0.3-0.1c0.2-0.1,0.4-0.1,0.7-0.2c0.5-0.2,1.1-0.4,1.8-0.7s1.1-0.5,1.7-0.7s1.6-0.8,2.5-1.3
				c0.4-0.2,0.8-0.4,1.1-0.6c1.5-0.8,3.1-1.8,5-3c0.9-0.6,1.9-1.3,2.8-2c1.9-1.4,4.1-3,6.4-5c0.6-0.5,1.2-0.9,1.8-1.5
				c3.1-2.7,6.5-5.8,10.2-9.4l2.1-2.1c1.4-1.5,2.9-3,4.4-4.6c0.8-0.8,1.5-1.6,2.3-2.5s1.6-1.7,2.4-2.7c1.5-1.6,3-3.3,4.5-5
				c0.1-0.2,0.3-0.4,0.5-0.6c2.5-3,5.2-6.1,7.9-9.5c1.7-2.1,3.4-4.2,5.1-6.5c0.1-0.2,0.3-0.4,0.4-0.6c2.8-3.5,5.6-7.3,8.5-11.2
				c1.1-1.5,2.2-3.1,3.5-4.7c4.1-5.6,8.3-11.6,12.8-18.1c0.1-0.2,0.2-0.3,0.3-0.4c2.2-3.2,4.5-6.5,6.7-10c0-0.1,0.1-0.3,0.2-0.4
				c1.8-2.6,3.5-5.4,5.4-8.2c2.7-4.2,5.5-8.6,8.3-13.1c2.8-4.5,5.7-9.2,8.7-14.1l0,0c1.4-2.2,2.7-4.4,4-6.6l0,0h0.1
				c86.7-144.9,124.5-145.8,125.4-145.8h251.8c-24.7,0-44.5,65.2-44.5,145.7S762.5,978.2,787.2,978.3z"/>
			<path class="st7" d="M787.2,978.3H284.5c0.3,0,0.6,0,0.9,0c0.1-0.1,0.2-0.1,0.4-0.1c0.4-0.1,0.8-0.1,1.3-0.3
				c0.2-0.1,0.4-0.1,0.6-0.2c0.1,0,0.2,0,0.3-0.1c0.2-0.1,0.4-0.1,0.7-0.2c0.5-0.2,1.1-0.4,1.8-0.7s1.1-0.5,1.7-0.7s1.6-0.8,2.5-1.3
				c0.4-0.2,0.8-0.4,1.1-0.6c1.5-0.8,3.1-1.8,5-3c1-0.6,1.9-1.3,2.8-2c1.9-1.4,4.1-3,6.4-5c0.6-0.5,1.2-0.9,1.8-1.5
				c3.1-2.7,6.5-5.8,10.2-9.4l2.1-2.1c1.4-1.5,2.9-3,4.4-4.6c0.8-0.8,1.5-1.6,2.3-2.5s1.6-1.7,2.4-2.7c1.5-1.6,3-3.3,4.5-5
				c0.1-0.2,0.3-0.4,0.5-0.6c2.5-3,5.2-6.1,7.9-9.5c1.7-2.1,3.4-4.2,5.1-6.5c0.1-0.2,0.3-0.4,0.4-0.6c2.8-3.5,5.6-7.3,8.5-11.2
				c1.1-1.5,2.2-3.1,3.5-4.7c4.1-5.6,8.3-11.6,12.8-18.1c0.1-0.2,0.2-0.3,0.3-0.4c2.2-3.2,4.5-6.5,6.7-10c0-0.1,0.1-0.3,0.2-0.4
				c1.8-2.6,3.5-5.4,5.4-8.2c2.7-4.2,5.5-8.6,8.3-13.1c2.8-4.5,5.7-9.2,8.7-14.1l0,0c1.3-2.2,2.6-4.4,4-6.6l0,0l0,0h332.8
				C742.7,913,762.5,978.2,787.2,978.3z"/>
			<path class="st7" d="M409.8,832.5L409.8,832.5H127.5c0,80.5,19.9,145.8,44.6,145.8h112.4C286.8,978.3,324.3,975.3,409.8,832.5z"
				/>
		</g>
	</g>
</g>
<polygon class="st8" points="741.6,976.5 245.1,976.5 230.6,894.6 727.2,894.6 "/>
<text transform="matrix(0.9848 0 0.1736 0.9848 239.1466 942.8772)" class="st9 st10 st11">empty.</text>
<polygon class="st8" points="685.1,795.1 188.6,795.1 206.7,727.4 703.2,727.4 "/>
<text transform="matrix(0.9659 0 -0.2588 0.9659 193.7585 775.6289)" class="st9 st10 st12">  Sadly, this</text>
<rect x="221" y="812.4" class="st8" width="496.5" height="73"/>
<text transform="matrix(1 0 0 1 221.0434 860.6303)" class="st9 st10 st13">collection is </text>
</svg>
