<svg xmlns="http://www.w3.org/2000/svg" viewBox="0 0 276.87 139.16"><defs><style>.cls-1{fill:#e2514c;}.cls-2{font-size:77px;fill:#2c2c2c;font-family:RussoOne-Regular, Russo One;}.cls-3{fill:#fff;letter-spacing:0em;}</style></defs><title>npmm-logo</title><g id="Layer_2" data-name="Layer 2"><g id="Layer_1-2" data-name="Layer 1"><path class="cls-1" d="M196.6,39.61c1.84-.32,2.51-1,2.86-2.78.75-3.91,4.25-6.25,8.31-5.87a7.5,7.5,0,0,1,6.78,7.19,21.69,21.69,0,0,1-.05,2.79c-.32,4.66,2,8.44,6.08,10a9.4,9.4,0,0,0,11-3.49,11.62,11.62,0,1,1,17.55,15.14c-3.22,3.32-4.24,7.29-2.46,11.59,1.72,4.13,4.83,6.55,9.56,6.58a7.53,7.53,0,0,1,7.47,7c.31,4-2.26,7.76-6.28,8.17-2.38.25-2.83,1.33-3.23,3.28A50.2,50.2,0,1,1,196.6,39.61Z"/><circle class="cls-1" cx="223.97" cy="9.99" r="2.25"/><circle class="cls-1" cx="230.3" cy="21.6" r="2.25"/><circle class="cls-1" cx="256.05" cy="69.16" r="6.04"/><circle class="cls-1" cx="223.89" cy="41.39" r="6.12"/><circle class="cls-1" cx="253.49" cy="2.56" r="2.56"/><circle class="cls-1" cx="262.44" cy="24.23" r="2.38"/><circle class="cls-1" cx="272.55" cy="61.4" r="4.32"/><circle class="cls-1" cx="269.88" cy="41.39" r="2.38"/><circle class="cls-1" cx="210.43" cy="21.5" r="4.32"/><circle class="cls-1" cx="253.49" cy="38.4" r="4.31"/><text class="cls-2" transform="translate(0 109.68)">npm<tspan class="cls-3" x="168.24" y="0">m</tspan></text></g></g></svg>